<svg width="25.000000" height="25.000000" viewBox="0 0 25 25" fill="none" xmlns="http://www.w3.org/2000/svg" xmlns:xlink="http://www.w3.org/1999/xlink">
	<desc>
			Created with Pixso.
	</desc>
	<defs>
		<clipPath id="clip37_404">
			<rect id="facebook" width="25.000000" height="25.000000" fill="white" fill-opacity="0"/>
		</clipPath>
	</defs>
	<rect id="facebook" width="25.000000" height="25.000000" fill="#000000" fill-opacity="0"/>
	<g clip-path="url(#clip37_404)">
		<path id="Vector" d="M24.6 12.5C24.6 5.81 19.18 0.39 12.5 0.39C5.81 0.39 0.39 5.81 0.39 12.5C0.39 18.54 4.81 23.55 10.6 24.46L10.6 16L7.53 16L7.53 12.5L10.6 12.5L10.6 9.83C10.6 6.79 12.41 5.12 15.18 5.12C16.5 5.12 17.89 5.35 17.89 5.35L17.89 8.33L16.36 8.33C14.86 8.33 14.39 9.26 14.39 10.22L14.39 12.5L17.75 12.5L17.21 16L14.39 16L14.39 24.46C20.18 23.55 24.6 18.54 24.6 12.5Z" fill="#F87661" fill-opacity="1.000000" fill-rule="nonzero"/>
	</g>
</svg>
