<svg width="23.000000" height="23.000000" viewBox="0 0 23 23" fill="none" xmlns="http://www.w3.org/2000/svg" xmlns:xlink="http://www.w3.org/1999/xlink">
	<desc>
			Created with Pixso.
	</desc>
	<defs/>
	<path id="Tick Square" d="M5.94922 -0.666748L16.0645 -0.666748C20.0186 -0.666748 22.667 2.10986 22.667 6.23987L22.667 15.7727C22.667 19.8899 20.0186 22.6666 16.0645 22.6666L5.94922 22.6666C1.99414 22.6666 -0.666016 19.8899 -0.666016 15.7727L-0.666016 6.23987C-0.666016 2.10986 1.99414 -0.666748 5.94922 -0.666748ZM15.877 8.94653L10.3359 14.4883C10.1377 14.6865 9.88086 14.7799 9.6123 14.7799C9.35547 14.7799 9.09863 14.6865 8.90039 14.4883L6.12402 11.7233C5.72754 11.3149 5.72754 10.6732 6.12402 10.2766C6.52051 9.87988 7.17383 9.87988 7.57031 10.2766L9.6123 12.3182L14.4307 7.49988C14.8271 7.10327 15.4805 7.10327 15.877 7.49988C16.2744 7.9082 16.2744 8.54993 15.877 8.94653Z" clip-rule="evenodd" fill="#42766C" fill-opacity="1.000000" fill-rule="evenodd"/>
</svg>
