<svg width="25.000000" height="20.000000" viewBox="0 0 25 20" fill="none" xmlns="http://www.w3.org/2000/svg" xmlns:xlink="http://www.w3.org/1999/xlink">
	<desc>
			Created with Pixso.
	</desc>
	<defs/>
	<path id="Vector" d="M22.42 4.4C22.44 4.63 22.44 4.85 22.44 5.07C22.44 11.84 17.29 19.65 7.86 19.65C4.96 19.65 2.26 18.81 0 17.35C0.41 17.39 0.8 17.41 1.23 17.41C3.63 17.41 5.83 16.6 7.59 15.22C5.34 15.17 3.45 13.7 2.8 11.67C3.12 11.72 3.44 11.75 3.77 11.75C4.23 11.75 4.69 11.68 5.12 11.57C2.77 11.1 1.01 9.03 1.01 6.54L1.01 6.48C1.69 6.86 2.49 7.1 3.33 7.13C1.95 6.21 1.04 4.64 1.04 2.86C1.04 1.91 1.3 1.04 1.74 0.28C4.26 3.39 8.05 5.42 12.3 5.64C12.23 5.26 12.18 4.86 12.18 4.47C12.18 1.64 14.46 -0.66 17.3 -0.66C18.78 -0.66 20.11 -0.04 21.04 0.96C22.2 0.74 23.31 0.31 24.3 -0.28C23.92 0.91 23.11 1.91 22.04 2.55C23.08 2.44 24.08 2.15 25 1.75C24.3 2.77 23.42 3.67 22.42 4.4Z" fill="#F87661" fill-opacity="1.000000" fill-rule="nonzero"/>
</svg>
