<svg width="24.000000" height="16.000000" viewBox="0 0 24 16" fill="none" xmlns="http://www.w3.org/2000/svg" xmlns:xlink="http://www.w3.org/1999/xlink">
	<desc>
			Created with Pixso.
	</desc>
	<defs/>
	<path id="Vector" d="M22.85 1.77C22.58 0.74 21.78 -0.07 20.76 -0.34C18.91 -0.84 11.5 -0.84 11.5 -0.84C11.5 -0.84 4.08 -0.84 2.23 -0.34C1.21 -0.07 0.41 0.74 0.14 1.77C-0.36 3.63 -0.36 7.51 -0.36 7.51C-0.36 7.51 -0.36 11.39 0.14 13.25C0.41 14.28 1.21 15.06 2.23 15.33C4.08 15.83 11.5 15.83 11.5 15.83C11.5 15.83 18.91 15.83 20.76 15.33C21.78 15.06 22.58 14.28 22.85 13.25C23.35 11.39 23.35 7.51 23.35 7.51C23.35 7.51 23.35 3.63 22.85 1.77ZM9.07 11.04L9.07 3.99L15.27 7.51L9.07 11.04Z" fill="#F87661" fill-opacity="1.000000" fill-rule="nonzero"/>
</svg>
