<svg width="162.000000" height="49.000000" viewBox="0 0 162 49" fill="none" xmlns="http://www.w3.org/2000/svg" xmlns:xlink="http://www.w3.org/1999/xlink">
	<desc>
			Created with Pixso.
	</desc>
	<defs/>
	<rect id="Graph" width="34.000000" height="34.000000" transform="translate(48.083984 24.041504) rotate(135.000000)" fill="#FFFFFF" fill-opacity="0"/>
	<path id="Stroke 1" d="M31.02 34.38C30.91 32.86 26.06 27.44 24.41 27.44C22.77 27.44 18.23 32.81 17.98 34.94C17.37 40.06 31.37 39.25 31.02 34.38Z" fill="#F87661" fill-opacity="1.000000" fill-rule="evenodd"/>
	<path id="Stroke 1" d="M24.41 27.44C22.77 27.44 18.23 32.81 17.98 34.94C17.37 40.06 31.37 39.25 31.02 34.38C30.91 32.86 26.06 27.44 24.41 27.44Z" stroke="#F87661" stroke-opacity="1.000000" stroke-width="1.500000" stroke-linejoin="round"/>
	<path id="Stroke 3" d="M16.1 28.39C13.92 28.39 10.61 19.32 16.32 13.62C20.58 9.35 27.49 9.35 31.75 13.62C37.06 18.92 35.21 27.56 32.21 27.56C30.48 27.56 27.39 22.52 24.29 22.52C21.18 22.51 18.27 28.39 16.1 28.39Z" fill="#42766C" fill-opacity="1.000000" fill-rule="evenodd"/>
	<path id="Stroke 3" d="M16.32 13.62C20.58 9.35 27.49 9.35 31.75 13.62C37.06 18.92 35.21 27.56 32.21 27.56C30.48 27.56 27.39 22.52 24.29 22.52C21.18 22.51 18.27 28.39 16.1 28.39C13.92 28.39 10.61 19.32 16.32 13.62Z" stroke="#42766C" stroke-opacity="1.000000" stroke-width="1.500000" stroke-linejoin="round"/>
	<path id="PetShop" d="M124.73 19.18Q123.6 18.5 122.06 18.5Q120.72 18.5 119.64 19.03Q118.69 19.49 118.09 20.24Q118.01 20.34 117.93 20.45L117.93 14.28L113.83 14.28L113.83 32.04L117.93 32.04L117.93 24.77Q117.93 23.49 118.56 22.75Q118.6 22.72 118.63 22.68Q118.82 22.47 119.06 22.32Q119.66 21.93 120.5 21.93Q121.34 21.93 121.94 22.31Q122.17 22.47 122.37 22.68Q122.41 22.72 122.44 22.75Q123.07 23.49 123.07 24.77L123.07 32.04L127.15 32.04L127.15 24.21Q127.15 21.72 125.92 20.22Q125.84 20.12 125.75 20.02Q125.29 19.52 124.73 19.18ZM101.85 31.61Q103.32 32.21 105.16 32.21Q107.06 32.21 108.45 31.51Q109.7 30.89 110.41 29.89Q110.5 29.77 110.58 29.64Q110.85 29.2 111.02 28.73Q111.31 27.92 111.31 27.02Q111.31 25.55 110.61 24.6Q110.59 24.58 110.57 24.55Q109.95 23.76 109.16 23.28Q108.98 23.17 108.8 23.08Q107.78 22.58 106.15 22.03Q104.52 21.5 103.75 21.04Q103.3 20.77 103.11 20.38Q102.98 20.1 102.98 19.77Q102.98 19.18 103.27 18.81Q103.35 18.71 103.44 18.64Q103.49 18.59 103.54 18.55Q103.98 18.24 104.64 18.24Q105.38 18.24 105.89 18.58Q105.98 18.64 106.06 18.71Q106.23 18.85 106.35 19.03Q106.62 19.43 106.65 19.99L111.09 19.99Q111.02 18.47 110.3 17.38Q109.89 16.76 109.27 16.28Q107.57 14.95 104.78 14.95Q102.06 14.95 100.36 16.27Q100.35 16.28 100.34 16.28Q99.68 16.8 99.27 17.47Q98.64 18.53 98.64 19.97Q98.64 21.55 99.38 22.53Q100 23.35 100.81 23.83Q100.98 23.93 101.16 24.02Q102.19 24.52 103.82 25.03Q104.95 25.36 105.56 25.63Q106.17 25.89 106.59 26.3Q106.77 26.47 106.87 26.67Q107.02 26.97 107.02 27.33Q107.02 27.8 106.81 28.14Q106.68 28.34 106.49 28.5Q105.96 28.92 105.05 28.92Q104.29 28.92 103.78 28.57Q103.69 28.5 103.61 28.43Q103.56 28.39 103.52 28.35Q103.05 27.86 102.96 27L98.59 27Q98.63 28.35 99.22 29.39Q99.35 29.62 99.51 29.83Q99.72 30.11 99.96 30.36Q100.74 31.15 101.85 31.61ZM72.06 22.57Q72.4 21.66 72.4 20.61Q72.4 19.15 71.81 18Q71.76 17.9 71.71 17.8Q71.56 17.54 71.38 17.3Q70.72 16.43 69.62 15.89Q68.23 15.19 66.22 15.19L59.57 15.19L59.57 32.04L63.67 32.04L63.67 25.99L66.22 25.99Q68.28 25.99 69.67 25.25Q70.91 24.58 71.57 23.55Q71.66 23.42 71.73 23.29Q71.92 22.94 72.06 22.57ZM96.79 32.04L96.79 28.56L95.33 28.56Q94.65 28.56 94.37 28.29Q94.08 28.03 94.08 27.43L94.08 22.05L96.77 22.05L96.77 18.64L94.08 18.64L94.08 15.38L89.98 15.38L89.98 18.64L88.34 18.64L88.34 22.05L89.98 22.05L89.98 27.38Q89.98 29.82 91.19 30.92Q91.21 30.93 91.22 30.95Q92.47 32.04 94.7 32.04L96.79 32.04ZM87.09 26.32Q87.16 25.7 87.16 25.12Q87.16 23.11 86.31 21.6Q85.86 20.79 85.22 20.18Q84.66 19.65 83.95 19.27Q83.94 19.26 83.92 19.25Q82.42 18.45 80.5 18.45Q78.5 18.45 76.97 19.29L76.97 19.29Q76.29 19.66 75.75 20.17Q75.06 20.82 74.58 21.69Q73.73 23.25 73.73 25.34Q73.73 27.43 74.59 28.99Q75.07 29.86 75.77 30.51Q76.31 31.02 76.99 31.39Q77.05 31.43 77.12 31.46Q78.61 32.23 80.5 32.23Q82.12 32.23 83.44 31.63Q84.5 31.15 85.27 30.38Q85.46 30.19 85.64 29.97Q86.1 29.42 86.41 28.79Q86.69 28.22 86.85 27.6L82.49 27.6Q82.22 28.16 81.78 28.48Q81.21 28.89 80.35 28.89Q79.71 28.89 79.19 28.64Q78.88 28.48 78.61 28.23Q78.56 28.19 78.52 28.14Q77.89 27.49 77.81 26.32L87.09 26.32ZM132.84 31.53Q134.31 32.23 136.1 32.23Q137.83 32.23 139.26 31.59Q139.47 31.5 139.66 31.39Q140.43 30.99 141.04 30.42Q141.7 29.8 142.18 28.98Q142.26 28.85 142.33 28.71Q143.11 27.23 143.11 25.34Q143.11 23.4 142.3 21.89Q142.25 21.8 142.19 21.71Q141.7 20.85 141.01 20.21Q140.42 19.68 139.7 19.29Q139.51 19.19 139.32 19.11Q137.89 18.45 136.15 18.45Q134.41 18.45 132.97 19.11Q132.78 19.2 132.6 19.29Q131.9 19.66 131.33 20.18Q130.61 20.83 130.1 21.71Q130.06 21.78 130.01 21.86Q129.19 23.38 129.19 25.34Q129.19 27.43 130.09 28.99Q130.57 29.82 131.24 30.45Q131.83 31 132.56 31.39Q132.7 31.47 132.84 31.53ZM149.66 20.17Q149.52 20.35 149.4 20.54L149.4 18.64L145.29 18.64L145.29 38.42L149.4 38.42L149.4 30.17Q149.43 30.22 149.47 30.27Q150.06 31.11 151.07 31.66Q152.13 32.23 153.53 32.23Q154.59 32.23 155.52 31.88Q156.04 31.69 156.53 31.38Q156.76 31.23 156.97 31.06Q158 30.25 158.65 28.95Q159.43 27.38 159.43 25.32Q159.43 23.25 158.65 21.69Q158 20.4 156.97 19.6Q156.76 19.44 156.53 19.29Q156.06 19 155.56 18.81Q154.61 18.45 153.53 18.45Q152.11 18.45 151.05 19.03Q150.21 19.49 149.66 20.17ZM67.65 22.18Q67.08 22.73 65.9 22.73L63.67 22.73L63.67 18.5L65.9 18.5Q67.08 18.5 67.65 19.05Q67.74 19.14 67.82 19.23Q68.23 19.76 68.23 20.61Q68.23 21.46 67.82 21.99Q67.74 22.09 67.65 22.18ZM82.67 22.86Q82.97 23.36 82.97 24.04L77.83 24.04Q77.98 23.09 78.52 22.52Q78.61 22.43 78.7 22.35Q78.9 22.18 79.12 22.06Q79.7 21.74 80.45 21.74Q81.25 21.74 81.85 22.08Q82.06 22.21 82.25 22.37Q82.5 22.59 82.67 22.86ZM137.15 28.48Q136.66 28.68 136.1 28.68Q135.5 28.68 135.01 28.46Q134.53 28.24 134.14 27.82Q133.36 26.95 133.36 25.34Q133.36 23.71 134.16 22.86Q134.52 22.47 134.97 22.26Q135.5 22.01 136.15 22.01Q136.72 22.01 137.21 22.21Q137.72 22.43 138.13 22.87Q138.14 22.88 138.14 22.89Q138.94 23.75 138.94 25.34Q138.94 26.89 138.17 27.75Q138.14 27.79 138.1 27.82Q137.67 28.27 137.15 28.48ZM154.61 23.15Q155.25 23.98 155.25 25.32Q155.25 26.61 154.64 27.45Q154.52 27.61 154.39 27.75Q153.94 28.22 153.39 28.45Q152.88 28.65 152.3 28.65Q151.7 28.65 151.19 28.44Q150.66 28.21 150.22 27.77Q150.11 27.65 150.02 27.52Q149.37 26.67 149.37 25.34Q149.37 24 150.02 23.16Q150.11 23.03 150.22 22.92Q150.66 22.46 151.2 22.24Q151.71 22.03 152.3 22.03Q152.97 22.03 153.52 22.28Q154 22.5 154.4 22.91Q154.51 23.02 154.61 23.15Z" fill="#42766C" fill-opacity="1.000000" fill-rule="evenodd"/>
</svg>
